<?xml version="1.0" encoding="UTF-8"?><svg xmlns="http://www.w3.org/2000/svg" viewBox="0 0 96 96"><defs><style>.cls-1{fill:#005eb8;}.cls-2{fill:#fdda24;}</style></defs><g id="Accent"><path class="cls-2" d="m62.35,35.52c-.61-10.97-8.47-18.12-11.81-20.68l-2.73,3.57c2.85,2.18,9.55,8.25,10.06,17.36.24,4.32-.93,8.69-3.49,12.99-2.34,3.94-4.97,5.89-8.01,8.15-3.08,2.28-6.57,4.87-9.77,9.85-1.39,2.16-2.55,4.49-3.46,6.95,1.3.76,2.66,1.42,4.06,1.98.82-2.3,1.88-4.48,3.18-6.48,2.76-4.29,5.63-6.42,8.67-8.67,3.14-2.33,6.39-4.74,9.2-9.46,3.02-5.08,4.41-10.31,4.12-15.54Z"/></g><g id="Primary_Icon"><g><rect class="cls-1" x="28.22" y="27.9" width="13.34" height="4.5"/><g><path class="cls-1" d="m67.32,27.78h-6.78c.56,1.47.99,2.97,1.28,4.5h5.5v-4.5Z"/><path class="cls-1" d="m84.95,56.91l-13.49,3.8,1.22,4.33,6.48-1.83c-5.53,11.04-16.46,18.37-28.73,19.24v-50.17h6.79c-.36-1.54-.89-3.05-1.56-4.5h-5.22v-11.45c3.5-.98,6.08-4.2,6.08-8.01,0-4.59-3.73-8.33-8.33-8.33s-8.32,3.73-8.32,8.33c0,3.81,2.57,7.03,6.08,8.01v79.54h4.5v-8.92c13.71-.87,25.99-8.86,32.39-21.02l1.52,5.38,4.33-1.22-3.72-13.19ZM48.46,12.14h-.56c-1.98-.14-3.55-1.8-3.55-3.81s1.72-3.83,3.83-3.83,3.83,1.72,3.83,3.83-1.57,3.67-3.55,3.81Z"/></g><path class="cls-1" d="m41.15,81.84c-10.44-2.54-19.92-9.73-24.53-18.54l6.18,1.74,1.22-4.33-13.49-3.8-3.72,13.19,4.33,1.22,1.61-5.71c2.59,4.88,6.44,9.32,11.28,12.95,5.15,3.87,11.05,6.59,17.11,7.89v-4.62Z"/></g></g></svg>