<?xml version="1.0" encoding="UTF-8"?><svg xmlns="http://www.w3.org/2000/svg" viewBox="0 0 96 96"><defs><style>.cls-1{fill:#005eb8;}.cls-2{fill:#fdda24;}</style></defs><g id="Primary_Icon"><g><polygon class="cls-1" points="56.17 96 40.33 96 40.33 87.21 44.83 87.21 44.83 91.5 51.67 91.5 51.67 87.21 56.17 87.21 56.17 96"/><path class="cls-1" d="m48,22.88c-13.77,0-24.98,11.2-24.98,24.98,0,9.73,5.54,18.43,14.25,22.56v10.95h21.45v-10.95c8.71-4.13,14.25-12.82,14.25-22.56,0-13.77-11.2-24.98-24.98-24.98Zm0,28.21c-1.74,0-3.15-1.41-3.15-3.15s1.41-3.15,3.15-3.15,3.15,1.41,3.15,3.15-1.41,3.15-3.15,3.15Zm7.64,15.77l-1.41.57v9.44h-3.98v-21.62c3.13-.96,5.4-3.88,5.4-7.32,0-4.22-3.43-7.65-7.65-7.65s-7.65,3.43-7.65,7.65c0,3.44,2.28,6.35,5.4,7.32v21.62h-3.98v-9.44l-1.41-.57c-7.8-3.14-12.84-10.6-12.84-19,0-11.29,9.19-20.48,20.48-20.48s20.48,9.19,20.48,20.48c0,8.4-5.04,15.86-12.84,19Z"/></g></g><g id="Accent"><g id="_Radial_Repeat_"><rect class="cls-2" y="45.76" width="9.03" height="4.5"/></g><g id="_Radial_Repeat_-2"><rect class="cls-2" x="15" y="12.75" width="4.5" height="9.03" transform="translate(-7.15 17.25) rotate(-45)"/></g><g id="_Radial_Repeat_-3"><rect class="cls-2" x="45.75" y=".01" width="4.5" height="9.03"/></g><g id="_Radial_Repeat_-4"><rect class="cls-2" x="74.23" y="15.01" width="9.03" height="4.5" transform="translate(10.86 60.74) rotate(-45)"/></g><g id="_Radial_Repeat_-5"><rect class="cls-2" x="86.97" y="45.76" width="9.03" height="4.5"/></g></g></svg>