<?xml version="1.0" encoding="UTF-8"?><svg xmlns="http://www.w3.org/2000/svg" viewBox="0 0 96 96"><defs><style>.cls-1{fill:#005eb8;}.cls-2{fill:#fdda24;}</style></defs><g id="Primary_Icon"><g><path class="cls-1" d="m53.7,23.13v-1.65c-.12-1.16.27-2.3,1.05-3.11.61-.64,1.4-.99,2.09-.94.65.04,1.33.43,1.86,1.05.68.8,1,1.89.89,2.97v.11s-.01,2.57-.01,2.57c-.03.38-.03.77,0,1.16v4l4.25,4.45v-8.57s0-.83,0-.83c.08-.83.44-1.62,1.02-2.22.62-.64,1.42-1,2.14-.96.66.04,1.37.44,1.89,1.06.38.46,1.01,1.43.85,2.85v.11s-.01,4.67-.01,4.67c-.03.38-.03.77,0,1.16v8.87l4.25,4.45v-13.44s0-.83,0-.83c.08-.83.44-1.62,1.02-2.22.62-.64,1.42-1,2.14-.96.66.04,1.37.44,1.89,1.06.38.46,1.01,1.43.85,2.85v.11s-.01,19.58-.01,19.58l4.25,4.44v-23.8c.2-2.14-.47-4.29-1.84-5.92-1.28-1.52-3.06-2.45-4.88-2.56-1.19-.07-2.39.2-3.48.77-.22-1.44-.83-2.81-1.78-3.93-1.28-1.52-3.06-2.45-4.88-2.56-1.37-.08-2.75.29-3.97,1.04-.32-.81-.76-1.56-1.32-2.22-1.27-1.51-3.04-2.44-4.84-2.55-1.95-.12-3.92.69-5.41,2.23-.97,1-1.64,2.22-2,3.54l3.99,4.18Z"/><path class="cls-1" d="m73.1,52.69l-.03.03-23.59-23.59c-1.37-1.66-3.37-2.71-5.49-2.89-1.97-.17-3.89.43-5.26,1.64-.89.79-1.55,1.83-1.92,3-1.18-.86-2.58-1.4-4.04-1.52-1.98-.17-3.89.43-5.26,1.64-1.03.91-1.74,2.15-2.07,3.54-.79-.34-1.64-.56-2.51-.64-1.97-.17-3.87.42-5.23,1.62-1.47,1.29-2.29,3.26-2.25,5.4.02,1.41.42,2.78,1.13,3.97-.89.29-1.71.75-2.4,1.36-1.52,1.35-2.36,3.37-2.32,5.55.05,2.2,1.03,4.25,2.69,5.65l8.03,8.03,3-3-8.1-8.1-.16-.14c-1.03-.84-1.21-1.94-1.22-2.52-.02-.92.31-1.77.89-2.29.53-.47,1.33-.7,2.16-.63.36.03.92.14,1.49.5l12.94,12.94.03-.03,2.21,2.21,3-3-14.11-14.11c-.41-.49-.86-.93-1.37-1.3l-2.07-2.07-.15-.14c-.9-.74-1.43-1.82-1.45-2.95-.01-.88.29-1.69.81-2.15.49-.43,1.24-.64,2.06-.57,1.05.09,2.04.63,2.73,1.48l.07.09,1.81,1.81c.25.29.53.57.82.82l12.59,12.59h0s2.44,2.44,2.44,2.44l3-3-15.03-15.03-.09-.09-.59-.59c-.53-.65-.83-1.45-.85-2.29-.02-.89.3-1.71.83-2.19.49-.44,1.28-.66,2.09-.59.59.05,1.72.3,2.62,1.41l.07.09,3.3,3.3c.25.29.52.56.82.82l10.84,10.84h0s.68.68.68.68l3-3-11.5-11.5-.1-.09-.59-.59c-.53-.65-.83-1.45-.85-2.29-.02-.89.3-1.71.83-2.19.49-.44,1.27-.66,2.09-.59.59.05,1.72.3,2.62,1.41l.07.09,23.76,23.76.02-.02c3.14,3.15,4.63,7.59,4.2,12.52-.44,5.08-2.85,10.03-6.77,13.96-3.5,3.5-7.92,5.83-12.45,6.58-4.38.72-8.6-.07-11.87-2.25-.78-.52-2.28-1.69-2.28-1.69-5.32-3.12-10.83-5.24-16.37-6.28-1.2-.23-2.35-.39-3.36-.54-1.55-.22-3.64-.53-4.18-.93.05-.64,1.37-2.46,3.34-3.66,3.59-2.17,7.81-.74,9.02-.25l1.6-3.94c-1.67-.68-7.54-2.64-12.82.55-2.72,1.65-6.34,5.33-5.16,8.72.95,2.73,4.03,3.18,7.59,3.7,1.02.15,2.07.3,3.18.51,5.12.96,10.22,2.94,15.17,5.86.61.53,1.25,1.02,1.92,1.47,3.28,2.18,7.12,3.23,11.09,3.23,6.47,0,13.28-2.8,18.58-8.1,4.63-4.63,7.48-10.53,8-16.6.54-6.21-1.4-11.86-5.45-15.91Z"/></g></g><g id="Accent"><g><g id="_Radial_Repeat_"><rect class="cls-2" x="25.95" y="16.27" width="4.25" height="10.62" transform="translate(2.16 45.7) rotate(-80.5)"/></g><g id="_Radial_Repeat_-2"><rect class="cls-2" x="32.52" y="5.76" width="4.25" height="10.62" transform="translate(.01 22.17) rotate(-35.5)"/></g><g id="_Radial_Repeat_-3"><rect class="cls-2" x="41.41" y="6.16" width="10.62" height="4.25" transform="translate(30.84 52.99) rotate(-80.5)"/></g></g></g></svg>