<?xml version="1.0" encoding="UTF-8"?><svg xmlns="http://www.w3.org/2000/svg" viewBox="0 0 96 96"><defs><style>.cls-1{fill:#005eb8;}.cls-2{fill:#fdda24;}</style></defs><g id="Primary_Icon"><g><path class="cls-1" d="m96,18.68H0v4.5h37.02l-3.94,3.94c-1.63,1.35-2.66,3.32-2.84,5.41-.17,1.95.42,3.85,1.62,5.21,1.27,1.43,3.17,2.25,5.25,2.25.05,0,.09,0,.14,0,2.25-.04,4.37-1.04,5.84-2.76l6.5-5.93h8.02l18.55,18.55.16.15c.78.64,1.23,1.57,1.25,2.56.01.8-.26,1.52-.73,1.94-.43.38-1.12.57-1.85.51-.38-.03-1.01-.16-1.63-.59-.36-.5-.79-.95-1.27-1.36l-9.57-9.57-.12.12-3.12,3.12,9.92,9.92c.24.28.49.55.76.8.27.48.42,1.01.43,1.57.01.8-.26,1.52-.73,1.94-.43.38-1.12.57-1.85.51-.54-.05-1.56-.27-2.36-1.28l-7.66-7.68-3.18,3.18h0s-.06.06-.06.06l6.54,6.54.16.15c.78.64,1.23,1.57,1.25,2.56.01.8-.26,1.52-.73,1.94-.43.38-1.12.57-1.85.51-.54-.05-1.56-.27-2.36-1.28l-1.59-1.59c-.39-.55-.85-1.06-1.37-1.5l-2.22-2.22-1.62,1.62-1.62,1.62,3.29,3.29c.3.51.48,1.09.49,1.69.01.79-.26,1.51-.72,1.92-.43.38-1.12.56-1.83.5-.37-.03-.97-.15-1.58-.54-.45,1.31-1.32,2.58-2.6,3.66,1.13.77,2.44,1.25,3.8,1.36.22.02.43.03.65.03,1.72,0,3.34-.58,4.54-1.64.91-.8,1.57-1.86,1.93-3.06.77.33,1.59.54,2.43.62.22.02.43.03.65.03,1.72,0,3.35-.59,4.56-1.65,1.24-1.1,2.01-2.67,2.2-4.41.16.02.32.04.48.06.22.02.43.03.65.03,1.72,0,3.35-.59,4.56-1.65,1.34-1.18,2.13-2.91,2.24-4.82.13,0,.25.02.38.02,1.72,0,3.35-.59,4.56-1.65,1.47-1.3,2.29-3.26,2.25-5.39,0-.04,0-.08,0-.12h13.94v-4.5h-15.54c-.35-.45-.75-.87-1.19-1.25l-19.79-19.79h-11.63l-8.01,7.31-.1.12c-.64.78-1.57,1.23-2.56,1.25-.81.02-1.52-.26-1.94-.73-.38-.43-.57-1.12-.51-1.85.05-.54.27-1.56,1.28-2.37l7.29-7.27-.1-.1h52.82v-4.5Z"/><path class="cls-1" d="m43.64,62.11c-1.32-1.19-3.19-1.8-5.12-1.82-.02-1.58-.69-3.07-1.87-4.14,0,0,0,0,0,0-1.22-1.11-2.91-1.71-4.69-1.8.12-1.77-.55-3.45-1.86-4.64h0c-1.18-1.07-2.82-1.67-4.54-1.79.03-.18.06-.36.07-.54.15-1.79-.53-3.51-1.85-4.72-2.52-2.29-7.09-2.43-10.2-.38-.09.04-.18.09-.27.15-1.89,1.22-3.07,3.07-3.23,5.08-.02.27-.02.54,0,.81H0v4.5h12.55v-.11c1.11.77,2.48,1.21,3.92,1.31-.03.18-.06.35-.07.53-.15,1.79.53,3.51,1.85,4.72,1.22,1.11,2.91,1.7,4.69,1.8-.12,1.77.55,3.46,1.86,4.64,1.32,1.19,3.19,1.8,5.12,1.82.02,1.58.69,3.07,1.87,4.14,1.34,1.21,3.25,1.82,5.21,1.82,1.74,0,3.52-.48,4.98-1.44.09-.04.19-.09.27-.15,1.89-1.22,3.07-3.07,3.23-5.08.15-1.79-.53-3.51-1.85-4.72Zm-29.07-14.23c.04-.53.38-1.06.94-1.49.14-.07.28-.15.4-.24,1.6-1.19,4.01-.92,4.85-.15.37.33.41.73.39,1.01-.04.53-.38,1.06-.94,1.49-.14.07-.28.15-.41.24-1.6,1.19-4.01.92-4.85.15-.37-.33-.41-.73-.39-1.01Zm6.32,7.04c.04-.53.38-1.06.94-1.49.14-.07.28-.15.41-.24,1.6-1.19,4.01-.92,4.85-.15.37.33.41.73.39,1.01-.04.53-.38,1.06-.94,1.49-.14.07-.28.15-.41.24-1.6,1.2-4.01.92-4.85.15-.37-.33-.41-.73-.39-1.01Zm6.55,6.44c.04-.53.38-1.06.94-1.49.14-.07.28-.15.41-.24,1.6-1.19,4.01-.92,4.85-.15.37.33.41.73.39,1.01-.04.46-.3.93-.74,1.32-.04.02-.08.04-.12.06-.17.11-.34.23-.5.35-1.6,1.19-4,.92-4.85.15-.37-.33-.41-.73-.39-1.01Zm13.57,5.09c-.04.53-.38,1.06-.94,1.49-.14.07-.28.15-.41.24-1.6,1.19-4.01.92-4.85.15-.37-.33-.41-.73-.39-1.01.04-.46.3-.93.74-1.32.04-.02.08-.04.12-.06.17-.11.34-.23.5-.35,1.6-1.19,4-.91,4.84-.15.37.33.41.73.39,1.01Z"/></g></g><g id="Accent"><g><g id="_Radial_Repeat_"><rect class="cls-2" x="13.21" y="71.7" width="11.22" height="4.5" transform="translate(-21.8 9.36) rotate(-17.89)"/></g><g id="_Radial_Repeat_-2"><rect class="cls-2" x="21.7" y="81.68" width="11.22" height="4.5" transform="translate(-59.84 69.99) rotate(-62.89)"/></g><g id="_Radial_Repeat_-3"><rect class="cls-2" x="38.12" y="79.37" width="4.5" height="11.22" transform="translate(-24.16 16.51) rotate(-17.89)"/></g></g></g></svg>